HIERARCHY
ROOT hip
{
	OFFSET 0.000000 0.000000 0.000000 
	CHANNELS 6 Xposition Yposition Zposition Xrotation Zrotation Yrotation
	JOINT abdomen
	{
		OFFSET 0.000000 3.402643 0.000000 
		CHANNELS 3 Xrotation Zrotation Yrotation
		JOINT chest
		{
			OFFSET 0.000000 8.438565 -0.680529 
			CHANNELS 3 Xrotation Zrotation Yrotation
			JOINT neck
			{
				OFFSET 0.000000 10.207942 -0.272212 
				CHANNELS 3 Xrotation Zrotation Yrotation
				JOINT head
				{
					OFFSET 0.000000 3.130431 0.000000 
					CHANNELS 3 Xrotation Zrotation Yrotation
					End Site
					{
						OFFSET 0.000000 3.130435 0.000000 
					}
				}
			}
			JOINT lCollar
			{
				OFFSET 3.470700 6.669187 -0.816635 
				CHANNELS 3 Yrotation Zrotation Xrotation
				JOINT lShldr
				{
					OFFSET 3.198488 0.000000 0.000000 
					CHANNELS 3 Zrotation Yrotation Xrotation
					JOINT lForeArm
					{
						OFFSET 10.139888 0.000000 0.000000 
						CHANNELS 3 Yrotation Zrotation Xrotation
						JOINT lHand
						{
							OFFSET 8.370511 0.000000 0.000000 
							CHANNELS 3 Zrotation Yrotation Xrotation
							End Site
							{
								OFFSET 4.083176 0.000000 0.000000 
							}
						}
					}
				}
			}
			JOINT rCollar
			{
				OFFSET -3.470700 6.669187 -0.816635 
				CHANNELS 3 Yrotation Zrotation Xrotation
				JOINT rShldr
				{
					OFFSET -3.198488 0.000000 0.000000 
					CHANNELS 3 Zrotation Yrotation Xrotation
					JOINT rForeArm
					{
						OFFSET -10.139888 0.000000 0.000000 
						CHANNELS 3 Yrotation Zrotation Xrotation
						JOINT rHand
						{
							OFFSET -8.370511 0.000000 0.000000 
							CHANNELS 3 Zrotation Yrotation Xrotation
							End Site
							{
								OFFSET -4.083176 0.000000 0.000000 
							}
						}
					}
				}
			}
		}
	}
	JOINT lThigh
	{
		OFFSET 5.308129 -1.633274 1.361059 
		CHANNELS 3 Xrotation Zrotation Yrotation
		JOINT lShin
		{
			OFFSET -2.041588 -20.007561 0.000000 
			CHANNELS 3 Xrotation Zrotation Yrotation
			JOINT lFoot
			{
				OFFSET 0.000000 -19.190928 -1.224953 
				CHANNELS 3 Xrotation Yrotation Zrotation
				End Site
				{
					OFFSET 0.000000 -2.449906 4.627600 
				}
			}
		}
	}
	JOINT rThigh
	{
		OFFSET -5.308129 -1.633274 1.361059 
		CHANNELS 3 Xrotation Zrotation Yrotation
		JOINT rShin
		{
			OFFSET 2.041588 -20.007561 0.000000 
			CHANNELS 3 Xrotation Zrotation Yrotation
			JOINT rFoot
			{
				OFFSET 0.000000 -19.190928 -1.224953 
				CHANNELS 3 Xrotation Yrotation Zrotation
				End Site
				{
					OFFSET 0.000000 -2.449906 4.627600 
				}
			}
		}
	}
}
MOTION
Frames: 17
Frame Time: 0.016667
14.407909 34.908325 31.006571 -1.191714 -3.489437 81.051491 0.000000 0.000000 0.000000 7.940109 22.328121 -20.106752 -20.358017 7.591907 -29.551083 12.991481 -8.821381 -19.785633 -3.521967 9.154817 6.304141 -90.332458 -67.584106 36.078529 -79.661674 -19.578846 -8.882480 -12.768156 -13.387657 -4.017453 3.089181 -14.089146 8.026228 -22.846830 18.655737 -104.899841 17.761408 -12.258745 7.026677 25.978304 15.399915 -0.737651 -11.134495 49.256084 34.367897 77.866722 -3.214816 -35.134251 -25.391510 -3.530959 13.058444 -48.716583 -29.877802 -19.324183 87.578041 -9.336056 0.586184 -25.317823 0.802665 -3.477459 
14.874327 34.835342 31.047941 -1.643855 -3.411069 82.902046 0.000000 0.000000 0.000000 5.997616 22.900211 -21.662834 -19.423532 6.589434 -29.342333 13.784561 -9.124488 -20.288023 -3.521967 9.154817 6.304141 -90.390884 -67.439095 36.435093 -80.415459 -20.244141 -10.248824 -12.127574 -14.011361 -4.056890 3.089181 -14.089146 8.026228 -22.309361 18.628815 -104.421570 17.915661 -12.613775 8.295053 25.776625 16.045689 -0.602714 -10.267763 49.261593 34.752422 76.453499 -3.495895 -35.013977 -28.673742 -4.398451 14.588865 -47.008884 -30.689577 -20.205147 88.108292 -9.471904 -0.029397 -26.187056 0.876494 -3.512609 
15.268861 34.864151 31.049126 -1.613067 -3.803732 85.643005 0.000000 0.000000 0.000000 3.107598 22.698454 -24.160625 -18.257149 6.083622 -29.370342 14.616222 -9.620895 -20.734932 -3.521967 9.154817 6.304141 -91.566498 -67.280128 37.879219 -80.369324 -20.285601 -11.935870 -13.065652 -13.561942 -3.920303 3.089181 -14.089146 8.026228 -21.075466 18.819221 -104.128265 18.022213 -12.776161 8.793671 25.794130 16.076283 -0.592536 -11.826610 48.984829 33.820412 75.671623 -3.658085 -34.628002 -30.278809 -4.866279 15.397808 -45.224072 -32.362442 -21.727633 88.172913 -9.306609 -0.484168 -26.934877 0.920966 -3.681083 
15.663333 34.893127 31.049934 -1.620361 -4.189793 88.377586 0.000000 0.000000 0.000000 0.240401 22.375769 -26.624079 -17.090261 5.578236 -29.400785 15.457661 -10.113173 -21.194632 -3.521967 9.154817 6.304141 -92.734734 -67.110512 39.333374 -80.318230 -20.318516 -13.610111 -13.992029 -13.118204 -3.788995 3.089181 -14.089146 8.026228 -19.829313 19.008282 -103.822342 18.135128 -12.934588 9.303487 25.821712 16.115683 -0.575213 -13.389681 48.699589 32.897560 74.907814 -3.800048 -34.211693 -31.884481 -5.374366 16.159428 -43.348053 -33.981422 -23.359230 88.227554 -9.159787 -0.957672 -27.663239 1.016736 -3.860510 
16.047527 34.940514 31.006382 -1.432782 -4.385413 89.417160 0.000000 0.000000 0.000000 -2.099431 21.523771 -27.208557 -15.437428 4.890845 -29.325451 16.042112 -10.131350 -21.733130 -3.521967 9.154817 6.304141 -95.212868 -66.497169 42.568211 -79.116142 -19.403755 -14.739653 -13.765881 -12.814844 -3.896827 3.089181 -14.089146 8.026228 -18.288939 19.277130 -103.232178 18.140234 -12.878952 9.533793 25.780777 16.141428 -0.575546 -13.486831 48.545002 32.747482 74.513153 -3.929234 -35.321144 -31.380789 -5.237012 16.011683 -42.564468 -34.494247 -23.451693 88.391556 -9.306100 -1.533019 -27.645430 0.974343 -3.786060 
16.431475 34.988155 30.962013 -1.248773 -4.576793 90.457382 0.000000 0.000000 0.000000 -4.417464 20.649687 -27.749006 -13.802324 4.210414 -29.275850 16.610228 -10.140622 -22.250664 -3.521967 9.154817 6.304141 -97.541969 -65.851334 45.653458 -77.912376 -18.516476 -15.880732 -13.529852 -12.519566 -4.001904 3.089181 -14.089146 8.026228 -16.747503 19.520082 -102.643524 18.155107 -12.809216 9.774891 25.747547 16.162807 -0.583333 -13.598027 48.400089 32.582077 74.119438 -4.052357 -36.387791 -30.907326 -5.106123 15.858530 -41.765545 -35.025063 -23.574049 88.564018 -9.462981 -2.079806 -27.618469 0.920661 -3.684595 
16.786478 35.065460 30.821518 -1.002299 -4.892227 91.287697 0.000000 0.000000 0.000000 -5.823699 19.952314 -28.120443 -13.594038 4.054368 -29.338354 16.953138 -10.401636 -22.410976 -3.521967 9.154817 6.304141 -98.370537 -66.194199 47.523930 -77.903542 -18.228369 -17.208775 -12.300530 -12.649041 -4.245698 3.089181 -14.089146 8.026228 -15.557634 19.451485 -102.860481 18.140202 -12.689095 9.281301 25.576681 15.320429 -0.870438 -13.451407 47.873241 32.413784 73.415054 -4.189839 -37.364677 -30.617119 -5.068635 15.824684 -41.423367 -35.463589 -23.375523 88.589165 -9.618876 -2.635348 -27.174072 0.857049 -3.484483 
17.141785 35.144070 30.680655 -0.740864 -5.213077 92.115089 0.000000 0.000000 0.000000 -7.228882 19.253366 -28.471401 -13.375648 3.898514 -29.400410 17.309288 -10.671775 -22.560472 -3.521967 9.154817 6.304141 -99.260834 -66.512459 49.444595 -77.883049 -17.941771 -18.523176 -11.089857 -12.775311 -4.492264 3.089181 -14.089146 8.026228 -14.371922 19.391247 -103.058113 18.132959 -12.563533 8.808342 25.418077 14.493733 -1.142890 -13.283120 47.350063 32.261559 72.720810 -4.327120 -38.341019 -30.357145 -5.036507 15.787215 -41.080368 -35.910030 -23.176058 88.633301 -9.794328 -3.192339 -26.720310 0.775424 -3.250626 
17.530439 35.375343 30.498215 -0.367892 -5.319415 92.662888 0.000000 0.000000 0.000000 -8.245100 18.563999 -28.573500 -13.705099 3.939540 -29.441349 18.245747 -11.197906 -22.563038 -3.521967 9.154817 6.304141 -100.917648 -66.545387 51.390152 -76.868744 -17.585236 -19.088577 -12.006030 -12.667881 -4.310212 3.089181 -14.089146 8.026228 -12.858788 19.285360 -102.791801 18.170290 -12.632814 9.462341 25.550488 14.783977 -1.029000 -12.190618 46.244553 32.482559 71.249084 -4.744928 -38.439240 -30.701612 -5.131624 15.955070 -40.660568 -36.574112 -22.991238 88.485252 -9.990263 -2.909979 -24.997263 0.668066 -2.971261 
17.918795 35.606956 30.315853 0.014138 -5.425630 93.203941 0.000000 0.000000 0.000000 -9.257523 17.888199 -28.658703 -14.025523 3.980149 -29.492043 19.188118 -11.732367 -22.577166 -3.521967 9.154817 6.304141 -102.566574 -66.544914 53.343739 -75.860855 -17.230232 -19.662304 -12.902843 -12.563837 -4.125130 3.089181 -14.089146 8.026228 -11.348900 19.174122 -102.528397 18.200487 -12.694791 10.117208 25.673120 15.082297 -0.914323 -11.126897 45.108883 32.676258 69.784729 -5.155315 -38.528820 -31.007286 -5.224366 16.122002 -40.250698 -37.238621 -22.817656 88.355560 -10.204881 -2.619532 -23.273079 0.557884 -2.716025 
18.271879 35.880035 30.143206 0.378355 -5.655542 93.410515 0.000000 0.000000 0.000000 -10.203807 17.669180 -28.818085 -14.308862 3.748270 -29.081669 19.640697 -11.944999 -22.316526 -3.521967 9.154817 6.304141 -102.550041 -66.430939 53.955528 -75.714096 -16.855650 -19.945547 -12.443125 -12.754498 -4.190632 3.089181 -14.089146 8.026228 -10.672785 19.272738 -102.395576 18.227970 -12.777085 10.345045 25.562366 15.241834 -0.893545 -10.097950 43.993736 32.908936 68.255081 -5.666144 -38.260929 -30.993780 -5.229019 16.154608 -40.995056 -37.927361 -22.033304 88.813576 -10.595237 -1.909369 -19.922586 0.342208 -2.123994 
18.624563 36.153374 29.970921 0.741401 -5.896589 93.616646 0.000000 0.000000 0.000000 -11.150690 17.443666 -28.965757 -14.596241 3.513933 -28.681570 20.091396 -12.158092 -22.054180 -3.521967 9.154817 6.304141 -102.523842 -66.306961 54.548462 -75.562614 -16.474518 -20.238434 -11.992005 -12.955087 -4.257047 3.089181 -14.089146 8.026228 -9.996681 19.357109 -102.273148 18.258812 -12.843632 10.591027 25.449072 15.405676 -0.884401 -9.103359 42.868973 33.115784 66.729980 -6.145287 -37.977783 -30.983023 -5.242677 16.167301 -41.754150 -38.566284 -21.222635 89.255119 -10.937198 -1.205296 -16.579866 0.171174 -1.552147 
18.927025 36.456047 29.843504 1.104374 -6.495997 93.596458 0.000000 0.000000 0.000000 -12.215339 17.329409 -28.966652 -15.653882 2.880095 -28.339338 21.199442 -12.121887 -22.050070 -3.521967 9.154817 6.304141 -101.985359 -66.272881 54.564587 -75.838112 -15.989724 -21.000423 -12.230457 -12.857970 -4.229475 3.089181 -14.089146 8.026228 -9.485993 19.364792 -102.483047 18.327389 -13.003723 11.497628 25.557596 15.642619 -0.777963 -8.498486 41.676224 32.960030 64.979668 -6.648154 -37.745434 -30.480150 -5.069333 15.915939 -43.951279 -39.064987 -20.083838 90.073761 -11.278861 -1.505211 -12.633783 -0.001638 -0.611362 
19.228975 36.758976 29.717024 1.478570 -7.089952 93.559807 0.000000 0.000000 0.000000 -13.299519 17.215174 -28.967676 -16.703419 2.251174 -27.982311 22.295643 -12.086507 -22.038507 -3.521967 9.154817 6.304141 -101.437317 -66.246399 54.592201 -76.109451 -15.492363 -21.761444 -12.471637 -12.749282 -4.195766 3.089181 -14.089146 8.026228 -8.975267 19.376141 -102.692375 18.392263 -13.160093 12.398784 25.663918 15.892151 -0.679932 -7.893785 40.482346 32.808777 63.214302 -7.169925 -37.529503 -29.943909 -4.906691 15.701867 -46.186913 -39.523571 -18.914759 90.872475 -11.610577 -1.755728 -8.700807 -0.119750 0.331041 
19.471462 37.091930 29.701271 2.148129 -8.399250 92.663567 0.000000 0.000000 0.000000 -15.001155 16.761801 -28.253208 -17.097546 2.169813 -27.736151 22.965178 -12.283385 -21.863997 -3.521967 9.154817 6.304141 -100.378929 -65.640999 54.467323 -76.632935 -14.268397 -22.542423 -12.946206 -11.735975 -4.264593 3.089181 -14.089146 8.026228 -8.313973 19.618462 -102.545349 18.404535 -13.169140 12.466991 25.982893 15.991174 -0.564205 -7.434149 39.106361 32.752060 61.073666 -8.063342 -36.845367 -29.111748 -4.674994 15.220354 -49.976517 -39.242279 -17.452639 91.276497 -11.689061 -1.027737 -5.834018 -0.157104 0.942862 
19.714302 37.424545 29.686831 2.830372 -9.699103 91.745667 0.000000 0.000000 0.000000 -16.686937 16.338522 -27.515251 -17.506674 2.096687 -27.490417 23.627472 -12.489672 -21.691824 -3.521967 9.154817 6.304141 -99.346855 -65.012482 54.394989 -77.136047 -13.038251 -23.302820 -13.408783 -10.723455 -4.347930 3.089181 -14.089146 8.026228 -7.652904 19.866882 -102.396599 18.414680 -13.168644 12.535198 26.289434 16.102348 -0.454047 -6.974521 37.730846 32.692593 58.885368 -8.932664 -36.129803 -28.259010 -4.408978 14.727189 -53.720409 -38.886295 -16.021721 91.651047 -11.727145 -0.260730 -3.013511 -0.174635 1.574232 
19.996489 37.715366 29.826384 3.236866 -10.729197 90.263672 0.000000 0.000000 0.000000 -17.753361 16.218767 -26.643806 -18.397886 2.094466 -27.148197 24.191353 -12.627887 -21.353069 -3.521967 9.154817 6.304141 -97.117241 -64.188904 53.429409 -78.187584 -11.542839 -23.459837 -13.195932 -10.641006 -4.404598 3.089181 -14.089146 8.026228 -7.187850 20.421900 -102.932434 18.410078 -13.138399 12.879318 26.619406 16.173967 -0.349723 -5.674284 36.728981 33.096764 56.355537 -9.994198 -34.990917 -27.489824 -4.133626 14.251927 -56.061420 -37.369537 -15.586869 89.593910 -11.043693 4.483272 -3.948464 -0.127618 0.856630 
